<?xml version="1.0" encoding="UTF-8" standalone="no"?>
<!DOCTYPE svg PUBLIC "-//W3C//DTD SVG 1.1//EN" "http://www.w3.org/Graphics/SVG/1.1/DTD/svg11.dtd">
<svg width="100%" height="100%" viewBox="0 0 300 300" version="1.1" xmlns="http://www.w3.org/2000/svg" xmlns:xlink="http://www.w3.org/1999/xlink" xml:space="preserve" xmlns:serif="http://www.serif.com/" style="fill-rule:evenodd;clip-rule:evenodd;stroke-linejoin:round;stroke-miterlimit:2;">
    <g transform="matrix(0.500889,0,0,0.500889,-755.266,-361.204)">
        <path d="M1671.01,1205.55C1615.26,1189.07 1575.08,1140 1575.08,1058.16C1575.08,955.627 1715.85,779.177 1715.85,779.177C1715.85,779.177 1740.45,810.014 1769.09,853.404C1731.51,904.344 1645.55,1029.6 1645.55,1109.71C1645.55,1149.33 1654.97,1181.27 1671.01,1205.55ZM1845.63,851.944C1874.23,808.622 1898.79,777.844 1898.79,777.844C1898.79,777.844 2039.57,954.294 2039.57,1056.83C2039.57,1138.56 1999.48,1187.62 1943.85,1204.15C1959.87,1179.87 1969.27,1147.96 1969.27,1108.38C1969.27,1028.19 1883.15,902.786 1845.63,851.944Z" style="fill:rgb(255,0,0);"/>
    </g>
    <g transform="matrix(0.500889,0,0,0.500889,-442.234,-374.45)">
        <path d="M1182.37,857.177C1182.37,857.177 1323.14,1033.63 1323.14,1136.16C1323.14,1238.69 1260.06,1289.79 1182.37,1289.79C1104.67,1289.79 1041.59,1238.69 1041.59,1136.16C1041.59,1033.63 1182.37,857.177 1182.37,857.177ZM1282.49,1167.58C1282.49,1171.11 1281.62,1174.93 1279.88,1179.05C1278.13,1183.16 1275.4,1187.19 1271.67,1191.15C1267.93,1195.11 1263.17,1198.33 1257.37,1200.8C1251.57,1203.27 1244.81,1204.5 1237.09,1204.5C1231.24,1204.5 1225.92,1203.95 1221.13,1202.84C1216.34,1201.73 1211.99,1200 1208.08,1197.66C1204.17,1195.31 1200.57,1192.22 1197.3,1188.39C1194.37,1184.91 1191.87,1181.01 1189.81,1176.7C1187.74,1172.39 1186.19,1167.79 1185.15,1162.89C1184.12,1158 1183.6,1152.81 1183.6,1147.31C1183.6,1138.38 1184.9,1130.39 1187.5,1123.32C1190.1,1116.26 1193.82,1110.22 1198.66,1105.2C1203.5,1100.19 1209.17,1096.37 1215.68,1093.74C1222.19,1091.12 1229.12,1089.81 1236.49,1089.81C1245.46,1089.81 1253.46,1091.6 1260.47,1095.18C1267.48,1098.76 1272.85,1103.19 1276.58,1108.46C1280.32,1113.73 1282.18,1118.71 1282.18,1123.4C1282.18,1125.97 1281.28,1128.24 1279.46,1130.21C1277.64,1132.18 1275.45,1133.16 1272.88,1133.16C1270,1133.16 1267.85,1132.48 1266.41,1131.12C1264.97,1129.76 1263.37,1127.41 1261.6,1124.08C1258.68,1118.58 1255.24,1114.47 1251.28,1111.75C1247.32,1109.03 1242.44,1107.66 1236.64,1107.66C1227.41,1107.66 1220.06,1111.17 1214.58,1118.18C1209.11,1125.19 1206.37,1135.15 1206.37,1148.06C1206.37,1156.69 1207.59,1163.86 1210.01,1169.59C1212.43,1175.31 1215.86,1179.59 1220.3,1182.41C1224.73,1185.24 1229.93,1186.65 1235.88,1186.65C1242.34,1186.65 1247.8,1185.05 1252.26,1181.85C1256.72,1178.64 1260.09,1173.94 1262.36,1167.74C1263.32,1164.81 1264.5,1162.43 1265.92,1160.59C1267.33,1158.74 1269.6,1157.82 1272.73,1157.82C1275.4,1157.82 1277.69,1158.76 1279.61,1160.62C1281.53,1162.49 1282.49,1164.81 1282.49,1167.58ZM1157.73,1109.03L1107.11,1109.03L1107.11,1136.26L1153.72,1136.26C1157.15,1136.26 1159.71,1137.03 1161.4,1138.57C1163.09,1140.11 1163.93,1142.14 1163.93,1144.66C1163.93,1147.18 1163.1,1149.24 1161.43,1150.83C1159.77,1152.41 1157.2,1153.21 1153.72,1153.21L1107.11,1153.21L1107.11,1184.76L1159.47,1184.76C1163,1184.76 1165.66,1185.58 1167.45,1187.22C1169.24,1188.86 1170.13,1191.04 1170.13,1193.76C1170.13,1196.38 1169.24,1198.52 1167.45,1200.15C1165.66,1201.79 1163,1202.61 1159.47,1202.61L1098.41,1202.61C1093.52,1202.61 1090,1201.53 1087.86,1199.36C1085.71,1197.19 1084.64,1193.68 1084.64,1188.84L1084.64,1105.47C1084.64,1102.24 1085.12,1099.61 1086.08,1097.56C1087.04,1095.52 1088.54,1094.03 1090.58,1093.1C1092.62,1092.17 1095.23,1091.7 1098.41,1091.7L1157.73,1091.7C1161.31,1091.7 1163.97,1092.49 1165.71,1094.08C1167.45,1095.67 1168.32,1097.75 1168.32,1100.33C1168.32,1102.95 1167.45,1105.05 1165.71,1106.64C1163.97,1108.23 1161.31,1109.03 1157.73,1109.03Z" style="fill:rgb(255,0,0);"/>
    </g>
</svg>
